name Walk1_EMG.mot
datacolumns 17
datarows 19
range 3.57400000 3.59200000
endheader
                time	            vasmed_r	            vaslat_r	            recfem_r	               gra_r	               sar_r	            tibant_r	           perlong_r	            addmag_r	           semimem_r	          bicfemlh_r	            gasmed_r	            gaslat_r	               sol_r	               tfl_r	              gmed_r	              gmax_r	
          3.57400000	          0.06445112	          0.08865429	          0.17311262	          0.29183509	          0.72343821	          0.03765852	          0.01082007	          0.16895415	          0.42395870	          0.15698510	          0.11513403	          0.07878191	          0.07055731	          0.13299432	          0.11280684	          0.15625994	
          3.57500000	          0.06435332	          0.08952594	          0.17151279	          0.29960802	          0.71659790	          0.03908692	          0.01090500	          0.16963112	          0.43668773	          0.15998654	          0.11296804	          0.07728788	          0.07078229	          0.13366563	          0.11328962	          0.15548700	
          3.57600000	          0.06426745	          0.09039600	          0.16998328	          0.30728497	          0.70962317	          0.04044022	          0.01098521	          0.17030554	          0.44927534	          0.16289858	          0.11084599	          0.07578003	          0.07098180	          0.13436524	          0.11375785	          0.15463827	
          3.57700000	          0.06419354	          0.09125756	          0.16851824	          0.31482541	          0.70249701	          0.04171467	          0.01106011	          0.17098216	          0.46171241	          0.16571275	          0.10876676	          0.07426227	          0.07115508	          0.13508373	          0.11421537	          0.15372040	
          3.57800000	          0.06413148	          0.09210421	          0.16711104	          0.32218944	          0.69520260	          0.04290698	          0.01112911	          0.17166446	          0.47399227	          0.16842345	          0.10672971	          0.07273837	          0.07130141	          0.13581324	          0.11466512	          0.15274128	
          3.57900000	          0.06408099	          0.09293060	          0.16575459	          0.32934084	          0.68772406	          0.04401436	          0.01119166	          0.17235708	          0.48610880	          0.17102719	          0.10473489	          0.07121197	          0.07142009	          0.13654663	          0.11510846	          0.15170964	
          3.58000000	          0.06404165	          0.09373258	          0.16444167	          0.33624992	          0.68004730	          0.04503452	          0.01124729	          0.17306773	          0.49805308	          0.17352243	          0.10278286	          0.06968660	          0.07151048	          0.13727662	          0.11554531	          0.15063441	
          3.58100000	          0.06401279	          0.09450679	          0.16316508	          0.34289344	          0.67216185	          0.04596564	          0.01129553	          0.17380794	          0.50981164	          0.17591124	          0.10087421	          0.06816558	          0.07157213	          0.13799559	          0.11597435	          0.14952381	
          3.58200000	          0.06399349	          0.09525027	          0.16191776	          0.34925210	          0.66406310	          0.04680628	          0.01133587	          0.17459418	          0.52136691	          0.17820176	          0.09900932	          0.06665197	          0.07160480	          0.13869575	          0.11639333	          0.14838475	
          3.58300000	          0.06398263	          0.09596013	          0.16069267	          0.35530879	          0.65575197	          0.04755545	          0.01136780	          0.17544906	          0.53269896	          0.18040898	          0.09718840	          0.06514863	          0.07160855	          0.13936927	          0.11679959	          0.14722337	
          3.58400000	          0.06397892	          0.09663339	          0.15948280	          0.36105036	          0.64723314	          0.04821267	          0.01139085	          0.17639971	          0.54378793	          0.18255186	          0.09541151	          0.06365814	          0.07158364	          0.14000881	          0.11719093	          0.14604580	
          3.58500000	          0.06398096	          0.09726683	          0.15828174	          0.36647296	          0.63851583	          0.04877808	          0.01140462	          0.17747285	          0.55461583	          0.18464867	          0.09367858	          0.06218270	          0.07153029	          0.14060840	          0.11756657	          0.14485859	
          3.58600000	          0.06398728	          0.09785707	          0.15708488	          0.37158567	          0.62961580	          0.04925231	          0.01140882	          0.17869023	          0.56516614	          0.18671414	          0.09198973	          0.06072417	          0.07144862	          0.14116391	          0.11792747	          0.14366869	
          3.58700000	          0.06399651	          0.09840083	          0.15588989	          0.37640739	          0.62055483	          0.04963639	          0.01140335	          0.18006667	          0.57542128	          0.18875897	          0.09034552	          0.05928443	          0.07133872	          0.14167232	          0.11827607	          0.14248274	
          3.58800000	          0.06400739	          0.09889537	          0.15469690	          0.38095936	          0.61135871	          0.04993167	          0.01138824	          0.18161006	          0.58536086	          0.19078975	          0.08874679	          0.05786569	          0.07120065	          0.14213087	          0.11861511	          0.14130643	
          3.58900000	          0.06401875	          0.09933868	          0.15350916	          0.38526077	          0.60205691	          0.05013998	          0.01136367	          0.18332236	          0.59496240	          0.19280928	          0.08719497	          0.05647041	          0.07103449	          0.14253751	          0.11894681	          0.14014474	
          3.59000000	          0.06402956	          0.09972949	          0.15233289	          0.38933059	          0.59268364	          0.05026401	          0.01132984	          0.18520172	          0.60420188	          0.19481750	          0.08569272	          0.05510080	          0.07084024	          0.14289242	          0.11927246	          0.13900241	
          3.59100000	          0.06403880	          0.10006672	          0.15117481	          0.39319194	          0.58327701	          0.05030742	          0.01128706	          0.18724538	          0.61305290	          0.19681238	          0.08424365	          0.05375878	          0.07061783	          0.14319916	          0.11959238	          0.13788419	
          3.59200000	          0.06404542	          0.10034905	          0.15004045	          0.39687389	          0.57387556	          0.05027455	          0.01123576	          0.18945104	          0.62148588	          0.19879012	          0.08285122	          0.05244614	          0.07036722	          0.14346457	          0.11990594	          0.13679511	
